<mxfile host="app.diagrams.net" modified="2024-02-29T09:20:24.587Z" agent="Mozilla/5.0 (Windows NT 10.0; Win64; x64) AppleWebKit/537.36 (KHTML, like Gecko) Chrome/121.0.0.0 Safari/537.36" etag="b5zq6twz1SdRmTAvB_6-" version="23.1.7" type="github">
  <diagram name="第 1 页" id="4X_3JVRHwP1g_Sf7HqXM">
    <mxGraphModel dx="1434" dy="1241" grid="0" gridSize="10" guides="1" tooltips="1" connect="1" arrows="1" fold="1" page="0" pageScale="1" pageWidth="1400" pageHeight="850" math="0" shadow="0">
      <root>
        <mxCell id="0" />
        <mxCell id="1" parent="0" />
        <mxCell id="na9ncXEAeLH1C4etYQbt-1" value="" style="ellipse;whiteSpace=wrap;html=1;aspect=fixed;" vertex="1" parent="1">
          <mxGeometry x="215" y="-104" width="80" height="80" as="geometry" />
        </mxCell>
        <mxCell id="na9ncXEAeLH1C4etYQbt-3" value="" style="html=1;shadow=0;dashed=0;align=center;verticalAlign=middle;shape=mxgraph.arrows2.stripedArrow;dy=0.6;dx=40;notch=25;" vertex="1" parent="1">
          <mxGeometry x="621" y="-91" width="100" height="70" as="geometry" />
        </mxCell>
      </root>
    </mxGraphModel>
  </diagram>
</mxfile>
